<svg width="88" height="18" viewBox="0 0 88 18" fill="none" xmlns="http://www.w3.org/2000/svg">
<path d="M28.5933 14H22.5593V4.074H28.5933V5.348H23.9313V8.4H28.1593V9.688H23.9313V12.726H28.5933V14ZM31.6649 10.108V14H30.3489V7.266H31.6369V8.232C32.0849 7.45733 32.7756 7.07 33.7089 7.07C34.4836 7.07 35.0763 7.31733 35.4869 7.812C35.9069 8.30667 36.1169 8.946 36.1169 9.73V14H34.8009V9.954C34.8009 8.82467 34.2783 8.26 33.2329 8.26C32.7383 8.26 32.3509 8.43733 32.0709 8.792C31.8003 9.13733 31.6649 9.576 31.6649 10.108ZM37.7203 14.364L38.9943 14.07C39.0409 14.546 39.2323 14.938 39.5683 15.246C39.9043 15.5633 40.3243 15.722 40.8283 15.722C42.2003 15.722 42.8863 14.994 42.8863 13.538V12.572C42.7183 12.8987 42.4523 13.1647 42.0883 13.37C41.7336 13.5753 41.3136 13.678 40.8283 13.678C39.9323 13.678 39.1903 13.3747 38.6023 12.768C38.0236 12.152 37.7343 11.368 37.7343 10.416C37.7343 9.492 38.0236 8.71733 38.6023 8.092C39.1809 7.45733 39.9229 7.14 40.8283 7.14C41.8549 7.14 42.5456 7.49467 42.9003 8.204V7.266H44.2023V13.496C44.2023 13.944 44.1416 14.3593 44.0203 14.742C43.9083 15.134 43.7263 15.4933 43.4743 15.82C43.2223 16.1467 42.8676 16.4033 42.4103 16.59C41.9623 16.7767 41.4349 16.87 40.8283 16.87C39.9976 16.87 39.2929 16.632 38.7143 16.156C38.1356 15.6893 37.8043 15.092 37.7203 14.364ZM41.0243 12.572C41.5936 12.572 42.0556 12.376 42.4103 11.984C42.7649 11.5827 42.9423 11.06 42.9423 10.416C42.9423 9.772 42.7649 9.254 42.4103 8.862C42.0556 8.46067 41.5936 8.26 41.0243 8.26C40.4456 8.26 39.9743 8.456 39.6103 8.848C39.2556 9.24 39.0783 9.76267 39.0783 10.416C39.0783 11.0787 39.2509 11.606 39.5963 11.998C39.9509 12.3807 40.4269 12.572 41.0243 12.572ZM47.62 14H46.304V3.864H47.62V14ZM51.1607 14H49.8587V7.266H51.1607V14ZM49.8307 5.39C49.6534 5.20333 49.5647 4.97933 49.5647 4.718C49.5647 4.45667 49.6534 4.23267 49.8307 4.046C50.0174 3.85933 50.2414 3.766 50.5027 3.766C50.764 3.766 50.988 3.85933 51.1747 4.046C51.3614 4.22333 51.4547 4.44733 51.4547 4.718C51.4547 4.97933 51.3614 5.20333 51.1747 5.39C50.988 5.56733 50.764 5.656 50.5027 5.656C50.2414 5.656 50.0174 5.56733 49.8307 5.39ZM52.7697 12.25L53.9597 11.83C54.0064 12.194 54.1651 12.4973 54.4357 12.74C54.7064 12.9733 55.0704 13.09 55.5277 13.09C55.8824 13.09 56.1624 13.006 56.3677 12.838C56.5731 12.6607 56.6757 12.446 56.6757 12.194C56.6757 11.746 56.3864 11.4567 55.8077 11.326L54.6597 11.074C54.1371 10.962 53.7264 10.738 53.4277 10.402C53.1291 10.066 52.9797 9.66 52.9797 9.184C52.9797 8.60533 53.2131 8.106 53.6797 7.686C54.1557 7.266 54.7204 7.056 55.3737 7.056C55.8031 7.056 56.1857 7.12133 56.5217 7.252C56.8577 7.37333 57.1191 7.53667 57.3057 7.742C57.4924 7.94733 57.6324 8.13867 57.7257 8.316C57.8191 8.49333 57.8891 8.67533 57.9357 8.862L56.7737 9.296C56.7551 9.184 56.7224 9.07667 56.6757 8.974C56.6291 8.862 56.5544 8.74067 56.4517 8.61C56.3584 8.47933 56.2184 8.37667 56.0317 8.302C55.8451 8.218 55.6257 8.176 55.3737 8.176C55.0471 8.176 54.7764 8.26467 54.5617 8.442C54.3564 8.61933 54.2537 8.82933 54.2537 9.072C54.2537 9.50133 54.5104 9.772 55.0237 9.884L56.1157 10.122C56.7131 10.2527 57.1704 10.4953 57.4877 10.85C57.8144 11.1953 57.9777 11.62 57.9777 12.124C57.9777 12.656 57.7584 13.1367 57.3197 13.566C56.8904 13.9953 56.2884 14.21 55.5137 14.21C54.6831 14.21 54.0344 14.0047 53.5677 13.594C53.1011 13.174 52.8351 12.726 52.7697 12.25ZM61.0458 10.038V14H59.7298V3.864H61.0458V8.05C61.4938 7.39667 62.1751 7.07 63.0898 7.07C63.8645 7.07 64.4571 7.31733 64.8678 7.812C65.2878 8.30667 65.4978 8.946 65.4978 9.73V14H64.1818V9.954C64.1818 8.82467 63.6591 8.26 62.6138 8.26C62.1285 8.26 61.7505 8.428 61.4798 8.764C61.2091 9.09067 61.0645 9.51533 61.0458 10.038Z" fill="white"/>
<path d="M7.01937 16C10.3438 16 13.0387 13.0899 13.0387 9.5C13.0387 5.91015 10.3438 3 7.01937 3C3.69496 3 1 5.91015 1 9.5C1 13.0899 3.69496 16 7.01937 16Z" stroke="white" stroke-linecap="round" stroke-linejoin="round"/>
<path d="M1 9.5H13.0387" stroke="white" stroke-linecap="round" stroke-linejoin="round"/>
<path d="M7.01938 3C8.52499 4.77993 9.38063 7.08982 9.42713 9.5C9.38063 11.9102 8.52499 14.2201 7.01938 16C5.51377 14.2201 4.65813 11.9102 4.61163 9.5C4.65813 7.08982 5.51377 4.77993 7.01938 3V3Z" stroke="white" stroke-linecap="round" stroke-linejoin="round"/>
<path d="M77 7L82 12L87 7" stroke="white" stroke-linecap="round" stroke-linejoin="round"/>
</svg>
