<svg width="284" height="18" viewBox="0 0 284 18" fill="none" xmlns="http://www.w3.org/2000/svg">
<path d="M28.6 14.21C27.2093 14.21 26.024 13.7387 25.044 12.796C24.0733 11.8533 23.588 10.6027 23.588 9.044C23.588 7.49467 24.0827 6.244 25.072 5.292C26.0613 4.34 27.2327 3.864 28.586 3.864C29.7807 3.864 30.7607 4.16733 31.526 4.774C32.3007 5.38067 32.8093 6.15067 33.052 7.084L31.47 7.616C31.3113 6.972 30.9893 6.44933 30.504 6.048C30.0187 5.64667 29.3793 5.446 28.586 5.446C27.6993 5.446 26.9293 5.76333 26.276 6.398C25.632 7.02333 25.31 7.90533 25.31 9.044C25.31 10.1547 25.632 11.0273 26.276 11.662C26.92 12.2873 27.6947 12.6 28.6 12.6C29.3747 12.6 30.014 12.39 30.518 11.97C31.022 11.55 31.3673 11.032 31.554 10.416L33.094 10.92C32.8513 11.844 32.338 12.6233 31.554 13.258C30.7793 13.8927 29.7947 14.21 28.6 14.21ZM36.0513 12.18C36.4246 12.5627 36.8773 12.754 37.4093 12.754C37.9413 12.754 38.3893 12.5627 38.7533 12.18C39.1266 11.7973 39.3133 11.2653 39.3133 10.584C39.3133 9.912 39.1266 9.38933 38.7533 9.016C38.3893 8.63333 37.9413 8.442 37.4093 8.442C36.8773 8.442 36.4246 8.63333 36.0513 9.016C35.6873 9.38933 35.5053 9.912 35.5053 10.584C35.5053 11.256 35.6873 11.788 36.0513 12.18ZM37.4093 6.972C38.4359 6.972 39.2806 7.31267 39.9433 7.994C40.6153 8.67533 40.9513 9.53867 40.9513 10.584C40.9513 11.6293 40.6153 12.4973 39.9433 13.188C39.2806 13.8693 38.4359 14.21 37.4093 14.21C36.3919 14.21 35.5473 13.8693 34.8753 13.188C34.2126 12.4973 33.8813 11.6293 33.8813 10.584C33.8813 9.53867 34.2126 8.67533 34.8753 7.994C35.5473 7.31267 36.3919 6.972 37.4093 6.972ZM44.1307 14H42.5207V7.182H44.0747V8.05C44.2614 7.714 44.5414 7.45267 44.9147 7.266C45.2974 7.07933 45.6894 6.986 46.0907 6.986C46.548 6.986 46.9587 7.08867 47.3227 7.294C47.6867 7.49933 47.9574 7.798 48.1347 8.19C48.6107 7.38733 49.348 6.986 50.3467 6.986C51.0187 6.986 51.588 7.20533 52.0547 7.644C52.5214 8.08267 52.7547 8.72667 52.7547 9.576V14H51.1867V9.842C51.1867 9.422 51.0747 9.086 50.8507 8.834C50.636 8.57267 50.3094 8.442 49.8707 8.442C49.4507 8.442 49.11 8.58667 48.8487 8.876C48.5874 9.16533 48.4567 9.52467 48.4567 9.954V14H46.8607V9.842C46.8607 9.422 46.7487 9.086 46.5247 8.834C46.31 8.57267 45.9834 8.442 45.5447 8.442C45.1154 8.442 44.77 8.58667 44.5087 8.876C44.2567 9.156 44.1307 9.51533 44.1307 9.954V14ZM56.3534 16.66H54.7434V7.182H56.3114V8.106C56.4887 7.798 56.7687 7.54133 57.1514 7.336C57.534 7.13067 57.9774 7.028 58.4814 7.028C59.4614 7.028 60.2314 7.364 60.7914 8.036C61.3514 8.69867 61.6314 9.548 61.6314 10.584C61.6314 11.62 61.3374 12.4787 60.7494 13.16C60.1614 13.832 59.3867 14.168 58.4254 14.168C57.9587 14.168 57.5434 14.0793 57.1794 13.902C56.8154 13.7247 56.54 13.5007 56.3534 13.23V16.66ZM60.0074 10.584C60.0074 9.94933 59.8394 9.44067 59.5034 9.058C59.1674 8.666 58.724 8.47 58.1734 8.47C57.632 8.47 57.1887 8.666 56.8434 9.058C56.5074 9.44067 56.3394 9.94933 56.3394 10.584C56.3394 11.228 56.5074 11.746 56.8434 12.138C57.1887 12.53 57.632 12.726 58.1734 12.726C58.7147 12.726 59.1534 12.53 59.4894 12.138C59.8347 11.746 60.0074 11.228 60.0074 10.584ZM62.7726 12.152C62.7726 11.5733 62.9592 11.1113 63.3326 10.766C63.7152 10.4113 64.2146 10.1873 64.8306 10.094L66.5806 9.828C66.9166 9.78133 67.0846 9.618 67.0846 9.338C67.0846 9.03 66.9772 8.78267 66.7626 8.596C66.5479 8.4 66.2259 8.302 65.7966 8.302C65.3859 8.302 65.0592 8.41867 64.8166 8.652C64.5739 8.876 64.4339 9.17 64.3966 9.534L62.9126 9.198C62.9779 8.582 63.2719 8.05933 63.7946 7.63C64.3172 7.19133 64.9799 6.972 65.7826 6.972C66.7719 6.972 67.4999 7.21 67.9666 7.686C68.4426 8.162 68.6806 8.77333 68.6806 9.52V12.908C68.6806 13.356 68.7086 13.72 68.7646 14H67.2526C67.2059 13.86 67.1826 13.5707 67.1826 13.132C66.7346 13.8507 66.0346 14.21 65.0826 14.21C64.3919 14.21 63.8319 14.0093 63.4026 13.608C62.9826 13.1973 62.7726 12.712 62.7726 12.152ZM65.3906 12.936C65.8946 12.936 66.3006 12.8007 66.6086 12.53C66.9259 12.25 67.0846 11.7973 67.0846 11.172V10.864L65.3066 11.13C64.6999 11.2327 64.3966 11.5407 64.3966 12.054C64.3966 12.2967 64.4852 12.5067 64.6626 12.684C64.8399 12.852 65.0826 12.936 65.3906 12.936ZM72.2678 10.066V14H70.6438V7.182H72.2258V8.092C72.4404 7.71867 72.7251 7.44333 73.0798 7.266C73.4438 7.07933 73.8311 6.986 74.2418 6.986C75.0444 6.986 75.6558 7.238 76.0758 7.742C76.4958 8.246 76.7058 8.89467 76.7058 9.688V14H75.0818V9.968C75.0818 9.51067 74.9698 9.14667 74.7458 8.876C74.5218 8.596 74.1671 8.456 73.6818 8.456C73.2338 8.456 72.8838 8.61 72.6318 8.918C72.3891 9.21667 72.2678 9.59933 72.2678 10.066ZM80.6865 16.758H78.9505L80.5885 13.188L77.6765 7.182H79.5105L81.4705 11.494L83.3045 7.182H85.0265L80.6865 16.758ZM93.5777 12.068C93.2231 12.068 92.9244 11.9933 92.6817 11.844C92.4391 11.6853 92.2804 11.4707 92.2057 11.2C92.0191 11.4893 91.7764 11.7133 91.4777 11.872C91.1884 12.0213 90.8851 12.096 90.5677 12.096C89.9517 12.096 89.4431 11.872 89.0417 11.424C88.6404 10.976 88.4397 10.3973 88.4397 9.688C88.4397 8.77333 88.7104 8.01267 89.2517 7.406C89.7931 6.79 90.4464 6.482 91.2117 6.482C91.5197 6.482 91.8044 6.55667 92.0657 6.706C92.3364 6.846 92.5231 7.056 92.6257 7.336L92.7517 6.664H93.9837L93.2417 10.136C93.2137 10.276 93.1997 10.374 93.1997 10.43C93.1997 10.7847 93.3584 10.962 93.6757 10.962C94.0491 10.962 94.3804 10.7147 94.6697 10.22C94.9684 9.72533 95.1177 9.13733 95.1177 8.456C95.1177 7.448 94.7677 6.622 94.0677 5.978C93.3677 5.334 92.4577 5.012 91.3377 5.012C90.1244 5.012 89.1211 5.41333 88.3277 6.216C87.5344 7.01867 87.1377 8.064 87.1377 9.352C87.1377 10.5747 87.5251 11.578 88.2997 12.362C89.0837 13.1367 90.1384 13.524 91.4637 13.524C92.4811 13.524 93.3817 13.2253 94.1657 12.628L94.7957 13.482C94.4131 13.8367 93.9091 14.1213 93.2837 14.336C92.6584 14.5507 92.0517 14.658 91.4637 14.658C89.8117 14.658 88.4631 14.168 87.4177 13.188C86.3724 12.208 85.8497 10.9293 85.8497 9.352C85.8497 7.74667 86.3771 6.43067 87.4317 5.404C88.4957 4.37733 89.7931 3.864 91.3237 3.864C92.7517 3.864 93.9417 4.30267 94.8937 5.18C95.8551 6.048 96.3357 7.13533 96.3357 8.442C96.3357 9.478 96.0604 10.3413 95.5097 11.032C94.9684 11.7133 94.3244 12.0587 93.5777 12.068ZM92.3177 8.848C92.3177 8.47467 92.2244 8.18533 92.0377 7.98C91.8604 7.76533 91.6037 7.658 91.2677 7.658C90.8104 7.658 90.4417 7.85867 90.1617 8.26C89.8817 8.652 89.7417 9.09533 89.7417 9.59C89.7417 9.99133 89.8304 10.318 90.0077 10.57C90.1851 10.8127 90.4557 10.934 90.8197 10.934C91.2491 10.934 91.5991 10.738 91.8697 10.346C92.1497 9.954 92.2991 9.45467 92.3177 8.848ZM97.2924 14.378L98.7904 13.986C98.8464 14.4153 99.0284 14.7653 99.3364 15.036C99.6538 15.316 100.041 15.456 100.498 15.456C101.786 15.456 102.43 14.7747 102.43 13.412V12.698C102.272 12.9873 102.02 13.2253 101.674 13.412C101.329 13.5987 100.923 13.692 100.456 13.692C99.5418 13.692 98.7858 13.3793 98.1884 12.754C97.6004 12.1287 97.3064 11.3353 97.3064 10.374C97.3064 9.45 97.6004 8.666 98.1884 8.022C98.7764 7.378 99.5324 7.056 100.456 7.056C101.455 7.056 102.127 7.38733 102.472 8.05V7.182H104.04V13.356C104.04 14.364 103.756 15.1993 103.186 15.862C102.617 16.534 101.735 16.87 100.54 16.87C99.6631 16.87 98.9258 16.632 98.3284 16.156C97.7311 15.68 97.3858 15.0873 97.2924 14.378ZM100.722 12.306C101.245 12.306 101.665 12.1333 101.982 11.788C102.309 11.4333 102.472 10.962 102.472 10.374C102.472 9.79533 102.309 9.33333 101.982 8.988C101.656 8.63333 101.236 8.456 100.722 8.456C100.2 8.456 99.7704 8.63333 99.4344 8.988C99.1078 9.33333 98.9444 9.79533 98.9444 10.374C98.9444 10.962 99.1078 11.4333 99.4344 11.788C99.7611 12.1333 100.19 12.306 100.722 12.306ZM107.637 14H106.027V7.182H107.581V8.05C107.767 7.714 108.047 7.45267 108.421 7.266C108.803 7.07933 109.195 6.986 109.597 6.986C110.054 6.986 110.465 7.08867 110.829 7.294C111.193 7.49933 111.463 7.798 111.641 8.19C112.117 7.38733 112.854 6.986 113.853 6.986C114.525 6.986 115.094 7.20533 115.561 7.644C116.027 8.08267 116.261 8.72667 116.261 9.576V14H114.693V9.842C114.693 9.422 114.581 9.086 114.357 8.834C114.142 8.57267 113.815 8.442 113.377 8.442C112.957 8.442 112.616 8.58667 112.355 8.876C112.093 9.16533 111.963 9.52467 111.963 9.954V14H110.367V9.842C110.367 9.422 110.255 9.086 110.031 8.834C109.816 8.57267 109.489 8.442 109.051 8.442C108.621 8.442 108.276 8.58667 108.015 8.876C107.763 9.156 107.637 9.51533 107.637 9.954V14ZM117.829 12.152C117.829 11.5733 118.016 11.1113 118.389 10.766C118.772 10.4113 119.271 10.1873 119.887 10.094L121.637 9.828C121.973 9.78133 122.141 9.618 122.141 9.338C122.141 9.03 122.034 8.78267 121.819 8.596C121.605 8.4 121.283 8.302 120.853 8.302C120.443 8.302 120.116 8.41867 119.873 8.652C119.631 8.876 119.491 9.17 119.453 9.534L117.969 9.198C118.035 8.582 118.329 8.05933 118.851 7.63C119.374 7.19133 120.037 6.972 120.839 6.972C121.829 6.972 122.557 7.21 123.023 7.686C123.499 8.162 123.737 8.77333 123.737 9.52V12.908C123.737 13.356 123.765 13.72 123.821 14H122.309C122.263 13.86 122.239 13.5707 122.239 13.132C121.791 13.8507 121.091 14.21 120.139 14.21C119.449 14.21 118.889 14.0093 118.459 13.608C118.039 13.1973 117.829 12.712 117.829 12.152ZM120.447 12.936C120.951 12.936 121.357 12.8007 121.665 12.53C121.983 12.25 122.141 11.7973 122.141 11.172V10.864L120.363 11.13C119.757 11.2327 119.453 11.5407 119.453 12.054C119.453 12.2967 119.542 12.5067 119.719 12.684C119.897 12.852 120.139 12.936 120.447 12.936ZM127.31 14H125.7V7.182H127.31V14ZM125.756 5.53C125.551 5.32467 125.448 5.07733 125.448 4.788C125.448 4.49867 125.551 4.25133 125.756 4.046C125.962 3.83133 126.209 3.724 126.498 3.724C126.797 3.724 127.049 3.82667 127.254 4.032C127.46 4.23733 127.562 4.48933 127.562 4.788C127.562 5.07733 127.46 5.32467 127.254 5.53C127.049 5.73533 126.797 5.838 126.498 5.838C126.209 5.838 125.962 5.73533 125.756 5.53ZM131.029 14H129.405V3.864H131.029V14ZM133.293 13.762C133.079 13.538 132.971 13.2673 132.971 12.95C132.971 12.6327 133.079 12.362 133.293 12.138C133.517 11.914 133.788 11.802 134.105 11.802C134.423 11.802 134.693 11.914 134.917 12.138C135.141 12.362 135.253 12.6327 135.253 12.95C135.253 13.2673 135.141 13.538 134.917 13.762C134.693 13.9767 134.423 14.084 134.105 14.084C133.788 14.084 133.517 13.9767 133.293 13.762ZM139.961 8.47C139.439 8.47 138.995 8.66133 138.631 9.044C138.267 9.41733 138.085 9.93067 138.085 10.584C138.085 11.2467 138.267 11.7693 138.631 12.152C139.005 12.5347 139.457 12.726 139.989 12.726C140.465 12.726 140.843 12.6 141.123 12.348C141.413 12.0867 141.604 11.7927 141.697 11.466L143.125 11.984C142.939 12.5907 142.575 13.1133 142.033 13.552C141.501 13.9907 140.82 14.21 139.989 14.21C138.991 14.21 138.151 13.8647 137.469 13.174C136.797 12.4833 136.461 11.62 136.461 10.584C136.461 9.53867 136.793 8.67533 137.455 7.994C138.127 7.31267 138.958 6.972 139.947 6.972C140.797 6.972 141.487 7.19133 142.019 7.63C142.561 8.06867 142.911 8.596 143.069 9.212L141.613 9.744C141.52 9.38933 141.338 9.09067 141.067 8.848C140.806 8.596 140.437 8.47 139.961 8.47ZM146.137 12.18C146.511 12.5627 146.963 12.754 147.495 12.754C148.027 12.754 148.475 12.5627 148.839 12.18C149.213 11.7973 149.399 11.2653 149.399 10.584C149.399 9.912 149.213 9.38933 148.839 9.016C148.475 8.63333 148.027 8.442 147.495 8.442C146.963 8.442 146.511 8.63333 146.137 9.016C145.773 9.38933 145.591 9.912 145.591 10.584C145.591 11.256 145.773 11.788 146.137 12.18ZM147.495 6.972C148.522 6.972 149.367 7.31267 150.029 7.994C150.701 8.67533 151.037 9.53867 151.037 10.584C151.037 11.6293 150.701 12.4973 150.029 13.188C149.367 13.8693 148.522 14.21 147.495 14.21C146.478 14.21 145.633 13.8693 144.961 13.188C144.299 12.4973 143.967 11.6293 143.967 10.584C143.967 9.53867 144.299 8.67533 144.961 7.994C145.633 7.31267 146.478 6.972 147.495 6.972ZM154.217 14H152.607V7.182H154.161V8.05C154.347 7.714 154.627 7.45267 155.001 7.266C155.383 7.07933 155.775 6.986 156.177 6.986C156.634 6.986 157.045 7.08867 157.409 7.294C157.773 7.49933 158.043 7.798 158.221 8.19C158.697 7.38733 159.434 6.986 160.433 6.986C161.105 6.986 161.674 7.20533 162.141 7.644C162.607 8.08267 162.841 8.72667 162.841 9.576V14H161.273V9.842C161.273 9.422 161.161 9.086 160.937 8.834C160.722 8.57267 160.395 8.442 159.957 8.442C159.537 8.442 159.196 8.58667 158.935 8.876C158.673 9.16533 158.543 9.52467 158.543 9.954V14H156.947V9.842C156.947 9.422 156.835 9.086 156.611 8.834C156.396 8.57267 156.069 8.442 155.631 8.442C155.201 8.442 154.856 8.58667 154.595 8.876C154.343 9.156 154.217 9.51533 154.217 9.954V14ZM165.039 13.762C164.825 13.538 164.717 13.2673 164.717 12.95C164.717 12.6327 164.825 12.362 165.039 12.138C165.263 11.914 165.534 11.802 165.851 11.802C166.169 11.802 166.439 11.914 166.663 12.138C166.887 12.362 166.999 12.6327 166.999 12.95C166.999 13.2673 166.887 13.538 166.663 13.762C166.439 13.9767 166.169 14.084 165.851 14.084C165.534 14.084 165.263 13.9767 165.039 13.762ZM171.707 8.47C171.185 8.47 170.741 8.66133 170.377 9.044C170.013 9.41733 169.831 9.93067 169.831 10.584C169.831 11.2467 170.013 11.7693 170.377 12.152C170.751 12.5347 171.203 12.726 171.735 12.726C172.211 12.726 172.589 12.6 172.869 12.348C173.159 12.0867 173.35 11.7927 173.443 11.466L174.871 11.984C174.685 12.5907 174.321 13.1133 173.779 13.552C173.247 13.9907 172.566 14.21 171.735 14.21C170.737 14.21 169.897 13.8647 169.215 13.174C168.543 12.4833 168.207 11.62 168.207 10.584C168.207 9.53867 168.539 8.67533 169.201 7.994C169.873 7.31267 170.704 6.972 171.693 6.972C172.543 6.972 173.233 7.19133 173.765 7.63C174.307 8.06867 174.657 8.596 174.815 9.212L173.359 9.744C173.266 9.38933 173.084 9.09067 172.813 8.848C172.552 8.596 172.183 8.47 171.707 8.47ZM177.883 12.18C178.257 12.5627 178.709 12.754 179.241 12.754C179.773 12.754 180.221 12.5627 180.585 12.18C180.959 11.7973 181.145 11.2653 181.145 10.584C181.145 9.912 180.959 9.38933 180.585 9.016C180.221 8.63333 179.773 8.442 179.241 8.442C178.709 8.442 178.257 8.63333 177.883 9.016C177.519 9.38933 177.337 9.912 177.337 10.584C177.337 11.256 177.519 11.788 177.883 12.18ZM179.241 6.972C180.268 6.972 181.113 7.31267 181.775 7.994C182.447 8.67533 182.783 9.53867 182.783 10.584C182.783 11.6293 182.447 12.4973 181.775 13.188C181.113 13.8693 180.268 14.21 179.241 14.21C178.224 14.21 177.379 13.8693 176.707 13.188C176.045 12.4973 175.713 11.6293 175.713 10.584C175.713 9.53867 176.045 8.67533 176.707 7.994C177.379 7.31267 178.224 6.972 179.241 6.972ZM185.963 14H184.353V7.182H185.907V8.05C186.093 7.714 186.373 7.45267 186.747 7.266C187.129 7.07933 187.521 6.986 187.923 6.986C188.38 6.986 188.791 7.08867 189.155 7.294C189.519 7.49933 189.789 7.798 189.967 8.19C190.443 7.38733 191.18 6.986 192.179 6.986C192.851 6.986 193.42 7.20533 193.887 7.644C194.353 8.08267 194.587 8.72667 194.587 9.576V14H193.019V9.842C193.019 9.422 192.907 9.086 192.683 8.834C192.468 8.57267 192.141 8.442 191.703 8.442C191.283 8.442 190.942 8.58667 190.681 8.876C190.419 9.16533 190.289 9.52467 190.289 9.954V14H188.693V9.842C188.693 9.422 188.581 9.086 188.357 8.834C188.142 8.57267 187.815 8.442 187.377 8.442C186.947 8.442 186.602 8.58667 186.341 8.876C186.089 9.156 185.963 9.51533 185.963 9.954V14Z" fill="white"/>
<path d="M2.3 6H12.7C13.415 6 14 6.585 14 7.3V15.1C14 15.815 13.415 16.4 12.7 16.4H2.3C1.585 16.4 1 15.815 1 15.1V7.3C1 6.585 1.585 6 2.3 6Z" stroke="white" stroke-linecap="round" stroke-linejoin="round"/>
<path d="M14 7.30005L7.5 11.85L1 7.30005" stroke="white" stroke-linecap="round" stroke-linejoin="round"/>
</svg>
