<svg width="285" height="21" viewBox="0 0 285 21" fill="none" xmlns="http://www.w3.org/2000/svg">
<path d="M24.462 12.012V10.192L28.326 4.928H30.482V10.528H32.008V12.012H30.482V14H28.83V12.012H24.462ZM28.83 10.528V6.622L25.974 10.528H28.83ZM32.6648 11.494L34.2468 11.088C34.2841 11.5827 34.4708 11.9887 34.8068 12.306C35.1428 12.6233 35.5675 12.782 36.0808 12.782C36.5661 12.782 36.9721 12.6327 37.2988 12.334C37.6348 12.026 37.8028 11.6247 37.8028 11.13C37.8028 10.598 37.6348 10.1873 37.2988 9.898C36.9628 9.59933 36.5475 9.45 36.0528 9.45C35.4181 9.45 34.9141 9.66 34.5408 10.08L32.9588 9.506L34.0788 4.928H39.0488V6.398H35.2128L34.6528 8.694C35.0541 8.274 35.6328 8.064 36.3888 8.064C37.3128 8.064 38.0595 8.33467 38.6288 8.876C39.2075 9.41733 39.4968 10.1547 39.4968 11.088C39.4968 11.9653 39.1841 12.7073 38.5588 13.314C37.9335 13.9207 37.1075 14.224 36.0808 14.224C35.1288 14.224 34.3355 13.958 33.7008 13.426C33.0661 12.8847 32.7208 12.2407 32.6648 11.494ZM42.1964 9.464C42.1964 10.64 42.4111 11.5033 42.8404 12.054C43.1764 12.502 43.6431 12.726 44.2404 12.726C44.8191 12.726 45.2857 12.502 45.6404 12.054C46.0604 11.5127 46.2704 10.6493 46.2704 9.464C46.2704 8.27867 46.0604 7.41533 45.6404 6.874C45.2857 6.426 44.8191 6.202 44.2404 6.202C43.6431 6.202 43.1764 6.426 42.8404 6.874C42.4111 7.406 42.1964 8.26933 42.1964 9.464ZM41.3424 12.726C40.8011 11.914 40.5304 10.8267 40.5304 9.464C40.5304 8.10133 40.8011 7.014 41.3424 6.202C42.0051 5.21267 42.9711 4.718 44.2404 4.718C45.5004 4.718 46.4617 5.21267 47.1244 6.202C47.6657 7.014 47.9364 8.10133 47.9364 9.464C47.9364 10.8267 47.6657 11.914 47.1244 12.726C46.4617 13.7153 45.5004 14.21 44.2404 14.21C42.9711 14.21 42.0051 13.7153 41.3424 12.726ZM62.415 11.382L64.361 4.074H66.097L63.311 14H61.575L59.167 6.496L56.759 14H55.037L52.223 4.074H53.987L55.975 11.326L58.299 4.074H60.049L62.415 11.382ZM66.4796 12.152C66.4796 11.5733 66.6663 11.1113 67.0396 10.766C67.4223 10.4113 67.9216 10.1873 68.5376 10.094L70.2876 9.828C70.6236 9.78133 70.7916 9.618 70.7916 9.338C70.7916 9.03 70.6843 8.78267 70.4696 8.596C70.2549 8.4 69.9329 8.302 69.5036 8.302C69.0929 8.302 68.7663 8.41867 68.5236 8.652C68.2809 8.876 68.1409 9.17 68.1036 9.534L66.6196 9.198C66.6849 8.582 66.9789 8.05933 67.5016 7.63C68.0243 7.19133 68.6869 6.972 69.4896 6.972C70.4789 6.972 71.2069 7.21 71.6736 7.686C72.1496 8.162 72.3876 8.77333 72.3876 9.52V12.908C72.3876 13.356 72.4156 13.72 72.4716 14H70.9596C70.9129 13.86 70.8896 13.5707 70.8896 13.132C70.4416 13.8507 69.7416 14.21 68.7896 14.21C68.0989 14.21 67.5389 14.0093 67.1096 13.608C66.6896 13.1973 66.4796 12.712 66.4796 12.152ZM69.0976 12.936C69.6016 12.936 70.0076 12.8007 70.3156 12.53C70.6329 12.25 70.7916 11.7973 70.7916 11.172V10.864L69.0136 11.13C68.4069 11.2327 68.1036 11.5407 68.1036 12.054C68.1036 12.2967 68.1923 12.5067 68.3696 12.684C68.5469 12.852 68.7896 12.936 69.0976 12.936ZM75.9748 14H74.3508V3.864H75.9748V14ZM79.6935 14H78.0695V3.864H79.6935V14ZM91.9249 6.398L90.4129 6.874C90.3476 6.49133 90.1563 6.14133 89.8389 5.824C89.5216 5.50667 89.0643 5.348 88.4669 5.348C87.9723 5.348 87.5616 5.488 87.2349 5.768C86.9176 6.048 86.7589 6.384 86.7589 6.776C86.7589 7.45733 87.1463 7.882 87.9209 8.05L89.3489 8.344C90.2076 8.512 90.8703 8.85267 91.3369 9.366C91.8036 9.87933 92.0369 10.4907 92.0369 11.2C92.0369 12.0213 91.7196 12.7307 91.0849 13.328C90.4596 13.916 89.6056 14.21 88.5229 14.21C87.3563 14.21 86.4463 13.9067 85.7929 13.3C85.1396 12.684 84.7709 11.97 84.6869 11.158L86.2549 10.71C86.3109 11.27 86.5349 11.7413 86.9269 12.124C87.3189 12.5067 87.8509 12.698 88.5229 12.698C89.1016 12.698 89.5449 12.572 89.8529 12.32C90.1703 12.0587 90.3289 11.7273 90.3289 11.326C90.3289 10.9993 90.2123 10.7193 89.9789 10.486C89.7456 10.2433 89.4189 10.0753 88.9989 9.982L87.5989 9.688C86.8243 9.52933 86.2083 9.20733 85.7509 8.722C85.3029 8.23667 85.0789 7.63 85.0789 6.902C85.0789 6.07133 85.4103 5.35733 86.0729 4.76C86.7356 4.16267 87.5289 3.864 88.4529 3.864C89.5076 3.864 90.3149 4.12067 90.8749 4.634C91.4349 5.138 91.7849 5.726 91.9249 6.398ZM95.6725 5.096V7.182H97.0865V8.624H95.6725V11.788C95.6725 12.0867 95.7425 12.306 95.8825 12.446C96.0225 12.5767 96.2418 12.642 96.5405 12.642C96.7271 12.642 96.9138 12.6233 97.1005 12.586V13.93C96.8578 14.0327 96.5265 14.084 96.1065 14.084C95.4718 14.084 94.9725 13.9067 94.6085 13.552C94.2445 13.188 94.0625 12.6887 94.0625 12.054V8.624H92.8025V7.182H93.1525C93.4978 7.182 93.7591 7.084 93.9365 6.888C94.1138 6.692 94.2025 6.43533 94.2025 6.118V5.096H95.6725ZM102.622 7.14V8.792C102.435 8.764 102.258 8.75 102.09 8.75C100.867 8.75 100.256 9.41733 100.256 10.752V14H98.632V7.182H100.214V8.274C100.373 7.91 100.629 7.62533 100.984 7.42C101.339 7.20533 101.74 7.098 102.188 7.098C102.337 7.098 102.482 7.112 102.622 7.14ZM105.043 9.842H108.389C108.371 9.41267 108.217 9.05333 107.927 8.764C107.647 8.47467 107.241 8.33 106.709 8.33C106.224 8.33 105.832 8.484 105.533 8.792C105.235 9.09067 105.071 9.44067 105.043 9.842ZM108.571 11.62L109.943 12.054C109.747 12.6793 109.379 13.1973 108.837 13.608C108.305 14.0093 107.647 14.21 106.863 14.21C105.893 14.21 105.067 13.8787 104.385 13.216C103.713 12.5533 103.377 11.6667 103.377 10.556C103.377 9.51067 103.704 8.652 104.357 7.98C105.02 7.308 105.799 6.972 106.695 6.972C107.741 6.972 108.557 7.294 109.145 7.938C109.733 8.57267 110.027 9.43133 110.027 10.514C110.027 10.8033 110.013 10.976 109.985 11.032H105.001C105.02 11.5453 105.207 11.97 105.561 12.306C105.925 12.642 106.359 12.81 106.863 12.81C107.741 12.81 108.31 12.4133 108.571 11.62ZM112.713 9.842H116.059C116.041 9.41267 115.887 9.05333 115.597 8.764C115.317 8.47467 114.911 8.33 114.379 8.33C113.894 8.33 113.502 8.484 113.203 8.792C112.905 9.09067 112.741 9.44067 112.713 9.842ZM116.241 11.62L117.613 12.054C117.417 12.6793 117.049 13.1973 116.507 13.608C115.975 14.0093 115.317 14.21 114.533 14.21C113.563 14.21 112.737 13.8787 112.055 13.216C111.383 12.5533 111.047 11.6667 111.047 10.556C111.047 9.51067 111.374 8.652 112.027 7.98C112.69 7.308 113.469 6.972 114.365 6.972C115.411 6.972 116.227 7.294 116.815 7.938C117.403 8.57267 117.697 9.43133 117.697 10.514C117.697 10.8033 117.683 10.976 117.655 11.032H112.671C112.69 11.5453 112.877 11.97 113.231 12.306C113.595 12.642 114.029 12.81 114.533 12.81C115.411 12.81 115.98 12.4133 116.241 11.62ZM121.307 5.096V7.182H122.721V8.624H121.307V11.788C121.307 12.0867 121.377 12.306 121.517 12.446C121.657 12.5767 121.877 12.642 122.175 12.642C122.362 12.642 122.549 12.6233 122.735 12.586V13.93C122.493 14.0327 122.161 14.084 121.741 14.084C121.107 14.084 120.607 13.9067 120.243 13.552C119.879 13.188 119.697 12.6887 119.697 12.054V8.624H118.437V7.182H118.787C119.133 7.182 119.394 7.084 119.571 6.888C119.749 6.692 119.837 6.43533 119.837 6.118V5.096H121.307ZM124.223 12.978C124.223 12.6793 124.335 12.4273 124.559 12.222C124.783 12.0167 125.058 11.914 125.385 11.914C125.758 11.914 126.061 12.0493 126.295 12.32C126.537 12.5907 126.659 12.95 126.659 13.398C126.659 14.2847 126.421 14.9707 125.945 15.456C125.478 15.9507 124.955 16.2353 124.377 16.31V15.484C124.703 15.4093 124.988 15.2273 125.231 14.938C125.483 14.6487 125.613 14.3267 125.623 13.972C125.529 14.0187 125.417 14.042 125.287 14.042C124.979 14.042 124.722 13.944 124.517 13.748C124.321 13.552 124.223 13.2953 124.223 12.978ZM138.471 13.244C137.78 13.888 136.894 14.21 135.811 14.21C134.728 14.21 133.842 13.888 133.151 13.244C132.46 12.6 132.115 11.6993 132.115 10.542V4.074H133.781V10.444C133.781 11.1347 133.958 11.6713 134.313 12.054C134.677 12.4273 135.176 12.614 135.811 12.614C136.455 12.614 136.954 12.4273 137.309 12.054C137.664 11.6807 137.841 11.144 137.841 10.444V4.074H139.521V10.542C139.521 11.6993 139.171 12.6 138.471 13.244ZM148.308 6.398L146.796 6.874C146.73 6.49133 146.539 6.14133 146.222 5.824C145.904 5.50667 145.447 5.348 144.85 5.348C144.355 5.348 143.944 5.488 143.618 5.768C143.3 6.048 143.142 6.384 143.142 6.776C143.142 7.45733 143.529 7.882 144.304 8.05L145.732 8.344C146.59 8.512 147.253 8.85267 147.72 9.366C148.186 9.87933 148.42 10.4907 148.42 11.2C148.42 12.0213 148.102 12.7307 147.468 13.328C146.842 13.916 145.988 14.21 144.906 14.21C143.739 14.21 142.829 13.9067 142.176 13.3C141.522 12.684 141.154 11.97 141.07 11.158L142.638 10.71C142.694 11.27 142.918 11.7413 143.31 12.124C143.702 12.5067 144.234 12.698 144.906 12.698C145.484 12.698 145.928 12.572 146.236 12.32C146.553 12.0587 146.712 11.7273 146.712 11.326C146.712 10.9993 146.595 10.7193 146.362 10.486C146.128 10.2433 145.802 10.0753 145.382 9.982L143.982 9.688C143.207 9.52933 142.591 9.20733 142.134 8.722C141.686 8.23667 141.462 7.63 141.462 6.902C141.462 6.07133 141.793 5.35733 142.456 4.76C143.118 4.16267 143.912 3.864 144.836 3.864C145.89 3.864 146.698 4.12067 147.258 4.634C147.818 5.138 148.168 5.726 148.308 6.398ZM156.818 14L155.88 11.508H151.68L150.756 14H148.978L152.842 4.074H154.788L158.652 14H156.818ZM153.78 5.894L152.268 9.954H155.292L153.78 5.894ZM159.701 12.978C159.701 12.6793 159.813 12.4273 160.037 12.222C160.261 12.0167 160.536 11.914 160.863 11.914C161.236 11.914 161.54 12.0493 161.773 12.32C162.016 12.5907 162.137 12.95 162.137 13.398C162.137 14.2847 161.899 14.9707 161.423 15.456C160.956 15.9507 160.434 16.2353 159.855 16.31V15.484C160.182 15.4093 160.466 15.2273 160.709 14.938C160.961 14.6487 161.092 14.3267 161.101 13.972C161.008 14.0187 160.896 14.042 160.765 14.042C160.457 14.042 160.2 13.944 159.995 13.748C159.799 13.552 159.701 13.2953 159.701 12.978ZM176.036 14H174.286L169.386 6.482V14H167.706V4.074H169.848L174.356 11.116V4.074H176.036V14ZM179.377 9.842H182.723C182.705 9.41267 182.551 9.05333 182.261 8.764C181.981 8.47467 181.575 8.33 181.043 8.33C180.558 8.33 180.166 8.484 179.867 8.792C179.569 9.09067 179.405 9.44067 179.377 9.842ZM182.905 11.62L184.277 12.054C184.081 12.6793 183.713 13.1973 183.171 13.608C182.639 14.0093 181.981 14.21 181.197 14.21C180.227 14.21 179.401 13.8787 178.719 13.216C178.047 12.5533 177.711 11.6667 177.711 10.556C177.711 9.51067 178.038 8.652 178.691 7.98C179.354 7.308 180.133 6.972 181.029 6.972C182.075 6.972 182.891 7.294 183.479 7.938C184.067 8.57267 184.361 9.43133 184.361 10.514C184.361 10.8033 184.347 10.976 184.319 11.032H179.335C179.354 11.5453 179.541 11.97 179.895 12.306C180.259 12.642 180.693 12.81 181.197 12.81C182.075 12.81 182.644 12.4133 182.905 11.62ZM189.682 7.182H191.362L192.972 11.9L194.33 7.182H195.982L193.798 14H192.174L190.48 9.1L188.828 14H187.162L184.95 7.182H186.686L188.072 11.9L189.682 7.182ZM203.255 9.8L199.783 4.074H201.771L204.151 8.232L206.545 4.074H208.435L204.935 9.8V14H203.255V9.8ZM209.932 12.18C210.305 12.5627 210.758 12.754 211.29 12.754C211.822 12.754 212.27 12.5627 212.634 12.18C213.007 11.7973 213.194 11.2653 213.194 10.584C213.194 9.912 213.007 9.38933 212.634 9.016C212.27 8.63333 211.822 8.442 211.29 8.442C210.758 8.442 210.305 8.63333 209.932 9.016C209.568 9.38933 209.386 9.912 209.386 10.584C209.386 11.256 209.568 11.788 209.932 12.18ZM211.29 6.972C212.317 6.972 213.161 7.31267 213.824 7.994C214.496 8.67533 214.832 9.53867 214.832 10.584C214.832 11.6293 214.496 12.4973 213.824 13.188C213.161 13.8693 212.317 14.21 211.29 14.21C210.273 14.21 209.428 13.8693 208.756 13.188C208.093 12.4973 207.762 11.6293 207.762 10.584C207.762 9.53867 208.093 8.67533 208.756 7.994C209.428 7.31267 210.273 6.972 211.29 6.972ZM220.392 7.14V8.792C220.205 8.764 220.028 8.75 219.86 8.75C218.637 8.75 218.026 9.41733 218.026 10.752V14H216.402V7.182H217.984V8.274C218.142 7.91 218.399 7.62533 218.754 7.42C219.108 7.20533 219.51 7.098 219.958 7.098C220.107 7.098 220.252 7.112 220.392 7.14ZM228.131 7.182L225.331 10.066L228.187 14H226.199L224.197 11.214L223.357 12.096V14H221.747V3.864H223.357V9.94L225.975 7.182H228.131Z" fill="white"/>
<path d="M14 10.5C14 15.5556 7.5 19.8889 7.5 19.8889C7.5 19.8889 1 15.5556 1 10.5C1 8.77609 1.68482 7.12279 2.90381 5.90381C4.12279 4.68482 5.77609 4 7.5 4C9.22391 4 10.8772 4.68482 12.0962 5.90381C13.3152 7.12279 14 8.77609 14 10.5Z" stroke="white" stroke-linecap="round" stroke-linejoin="round"/>
<path d="M7.49998 12.6667C8.6966 12.6667 9.66665 11.6967 9.66665 10.5C9.66665 9.30342 8.6966 8.33337 7.49998 8.33337C6.30336 8.33337 5.33331 9.30342 5.33331 10.5C5.33331 11.6967 6.30336 12.6667 7.49998 12.6667Z" stroke="white" stroke-linecap="round" stroke-linejoin="round"/>
</svg>
