<svg width="285" height="19" viewBox="0 0 285 19" fill="none" xmlns="http://www.w3.org/2000/svg">
<path d="M26.87 8.638H28.62C29.152 8.638 29.5673 8.50267 29.866 8.232C30.174 7.952 30.328 7.57867 30.328 7.112C30.328 6.636 30.174 6.258 29.866 5.978C29.5673 5.698 29.152 5.558 28.62 5.558H26.87V8.638ZM28.872 10.122H26.87V14H25.19V4.074H28.872C29.8147 4.074 30.5753 4.35867 31.154 4.928C31.742 5.49733 32.036 6.22067 32.036 7.098C32.036 7.98467 31.742 8.71267 31.154 9.282C30.5753 9.842 29.8147 10.122 28.872 10.122ZM34.9865 9.996V14H33.3625V3.864H34.9865V7.84C35.4252 7.27067 36.0738 6.986 36.9325 6.986C37.7352 6.986 38.3512 7.238 38.7805 7.742C39.2098 8.246 39.4245 8.89467 39.4245 9.688V14H37.8005V9.968C37.8005 9.51067 37.6885 9.14667 37.4645 8.876C37.2405 8.596 36.8858 8.456 36.4005 8.456C35.9712 8.456 35.6305 8.60067 35.3785 8.89C35.1358 9.17933 35.0052 9.548 34.9865 9.996ZM43.0396 12.18C43.4129 12.5627 43.8656 12.754 44.3976 12.754C44.9296 12.754 45.3776 12.5627 45.7416 12.18C46.1149 11.7973 46.3016 11.2653 46.3016 10.584C46.3016 9.912 46.1149 9.38933 45.7416 9.016C45.3776 8.63333 44.9296 8.442 44.3976 8.442C43.8656 8.442 43.4129 8.63333 43.0396 9.016C42.6756 9.38933 42.4936 9.912 42.4936 10.584C42.4936 11.256 42.6756 11.788 43.0396 12.18ZM44.3976 6.972C45.4242 6.972 46.2689 7.31267 46.9316 7.994C47.6036 8.67533 47.9396 9.53867 47.9396 10.584C47.9396 11.6293 47.6036 12.4973 46.9316 13.188C46.2689 13.8693 45.4242 14.21 44.3976 14.21C43.3802 14.21 42.5356 13.8693 41.8636 13.188C41.2009 12.4973 40.8696 11.6293 40.8696 10.584C40.8696 9.53867 41.2009 8.67533 41.8636 7.994C42.5356 7.31267 43.3802 6.972 44.3976 6.972ZM51.133 10.066V14H49.509V7.182H51.091V8.092C51.3057 7.71867 51.5903 7.44333 51.945 7.266C52.309 7.07933 52.6963 6.986 53.107 6.986C53.9097 6.986 54.521 7.238 54.941 7.742C55.361 8.246 55.571 8.89467 55.571 9.688V14H53.947V9.968C53.947 9.51067 53.835 9.14667 53.611 8.876C53.387 8.596 53.0323 8.456 52.547 8.456C52.099 8.456 51.749 8.61 51.497 8.918C51.2543 9.21667 51.133 9.59933 51.133 10.066ZM58.682 9.842H62.028C62.0094 9.41267 61.8554 9.05333 61.566 8.764C61.286 8.47467 60.88 8.33 60.348 8.33C59.8627 8.33 59.4707 8.484 59.172 8.792C58.8734 9.09067 58.71 9.44067 58.682 9.842ZM62.21 11.62L63.582 12.054C63.386 12.6793 63.0174 13.1973 62.476 13.608C61.944 14.0093 61.286 14.21 60.502 14.21C59.5314 14.21 58.7054 13.8787 58.024 13.216C57.352 12.5533 57.016 11.6667 57.016 10.556C57.016 9.51067 57.3427 8.652 57.996 7.98C58.6587 7.308 59.438 6.972 60.334 6.972C61.3794 6.972 62.196 7.294 62.784 7.938C63.372 8.57267 63.666 9.43133 63.666 10.514C63.666 10.8033 63.652 10.976 63.624 11.032H58.64C58.6587 11.5453 58.8454 11.97 59.2 12.306C59.564 12.642 59.998 12.81 60.502 12.81C61.3794 12.81 61.9487 12.4133 62.21 11.62ZM65.162 12.964C65.162 12.6467 65.2693 12.3807 65.484 12.166C65.708 11.942 65.9786 11.83 66.296 11.83C66.604 11.83 66.87 11.942 67.094 12.166C67.318 12.3807 67.43 12.6467 67.43 12.964C67.43 13.272 67.318 13.538 67.094 13.762C66.87 13.9767 66.604 14.084 66.296 14.084C65.9786 14.084 65.708 13.9767 65.484 13.762C65.2693 13.538 65.162 13.272 65.162 12.964ZM65.148 8.232C65.148 7.91467 65.2553 7.64867 65.47 7.434C65.694 7.21 65.9646 7.098 66.282 7.098C66.59 7.098 66.856 7.21 67.08 7.434C67.304 7.64867 67.416 7.91467 67.416 8.232C67.416 8.54 67.304 8.806 67.08 9.03C66.856 9.24467 66.59 9.352 66.282 9.352C65.9646 9.352 65.694 9.24467 65.47 9.03C65.2553 8.806 65.148 8.54 65.148 8.232ZM75.3512 16.352C73.4752 14.476 72.5372 12.1987 72.5372 9.52C72.5372 6.84133 73.4752 4.564 75.3512 2.688L76.3032 3.556C74.7072 5.30133 73.9092 7.28933 73.9092 9.52C73.9092 11.76 74.7072 13.7527 76.3032 15.498L75.3512 16.352ZM78.3312 9.464C78.3312 10.64 78.5458 11.5033 78.9752 12.054C79.3112 12.502 79.7778 12.726 80.3752 12.726C80.9538 12.726 81.4205 12.502 81.7752 12.054C82.1952 11.5127 82.4052 10.6493 82.4052 9.464C82.4052 8.27867 82.1952 7.41533 81.7752 6.874C81.4205 6.426 80.9538 6.202 80.3752 6.202C79.7778 6.202 79.3112 6.426 78.9752 6.874C78.5458 7.406 78.3312 8.26933 78.3312 9.464ZM77.4772 12.726C76.9358 11.914 76.6652 10.8267 76.6652 9.464C76.6652 8.10133 76.9358 7.014 77.4772 6.202C78.1398 5.21267 79.1058 4.718 80.3752 4.718C81.6352 4.718 82.5965 5.21267 83.2592 6.202C83.8005 7.014 84.0712 8.10133 84.0712 9.464C84.0712 10.8267 83.8005 11.914 83.2592 12.726C82.5965 13.7153 81.6352 14.21 80.3752 14.21C79.1058 14.21 78.1398 13.7153 77.4772 12.726ZM92.1101 5.166L91.6341 6.538C91.1861 6.29533 90.6681 6.174 90.0801 6.174C89.2214 6.174 88.5074 6.44 87.9381 6.972C87.3781 7.49467 87.0608 8.19467 86.9861 9.072C87.4528 8.35333 88.2228 7.994 89.2961 7.994C90.2108 7.994 90.9528 8.274 91.5221 8.834C92.0914 9.394 92.3761 10.136 92.3761 11.06C92.3761 11.984 92.0448 12.74 91.3821 13.328C90.7194 13.916 89.9028 14.21 88.9321 14.21C87.8121 14.21 86.9254 13.8087 86.2721 13.006C85.6281 12.2033 85.3061 11.2 85.3061 9.996C85.3061 8.38133 85.7588 7.098 86.6641 6.146C87.5694 5.194 88.7408 4.718 90.1781 4.718C90.9994 4.718 91.6434 4.86733 92.1101 5.166ZM87.1681 11.088C87.1681 11.592 87.3408 12.0027 87.6861 12.32C88.0408 12.628 88.4561 12.782 88.9321 12.782C89.4268 12.782 89.8421 12.628 90.1781 12.32C90.5234 12.012 90.6961 11.6013 90.6961 11.088C90.6961 10.5747 90.5234 10.164 90.1781 9.856C89.8421 9.548 89.4268 9.394 88.9321 9.394C88.4374 9.394 88.0174 9.548 87.6721 9.856C87.3361 10.164 87.1681 10.5747 87.1681 11.088ZM93.2589 12.012V10.192L97.1229 4.928H99.2789V10.528H100.805V12.012H99.2789V14H97.6269V12.012H93.2589ZM97.6269 10.528V6.622L94.7709 10.528H97.6269ZM101.966 2.688C103.842 4.54533 104.78 6.82267 104.78 9.52C104.78 12.2173 103.842 14.4947 101.966 16.352L101.014 15.498C102.61 13.762 103.408 11.7693 103.408 9.52C103.408 7.28 102.61 5.292 101.014 3.556L101.966 2.688ZM111.996 9.884L111.226 8.638L113.732 6.398H109.602V4.928H115.902V6.328L113.438 8.484C114.166 8.50267 114.8 8.75933 115.342 9.254C115.883 9.74867 116.154 10.4113 116.154 11.242C116.154 12.0633 115.846 12.7633 115.23 13.342C114.614 13.9207 113.788 14.21 112.752 14.21C111.744 14.21 110.927 13.9347 110.302 13.384C109.686 12.824 109.35 12.1427 109.294 11.34L110.932 11.004C110.95 11.5267 111.128 11.9513 111.464 12.278C111.809 12.6047 112.234 12.768 112.738 12.768C113.27 12.768 113.69 12.6187 113.998 12.32C114.306 12.0213 114.46 11.6573 114.46 11.228C114.46 10.7427 114.296 10.374 113.97 10.122C113.652 9.86067 113.279 9.73 112.85 9.73C112.486 9.73 112.201 9.78133 111.996 9.884ZM119.707 9.884L118.937 8.638L121.443 6.398H117.313V4.928H123.613V6.328L121.149 8.484C121.877 8.50267 122.511 8.75933 123.053 9.254C123.594 9.74867 123.865 10.4113 123.865 11.242C123.865 12.0633 123.557 12.7633 122.941 13.342C122.325 13.9207 121.499 14.21 120.463 14.21C119.455 14.21 118.638 13.9347 118.013 13.384C117.397 12.824 117.061 12.1427 117.005 11.34L118.643 11.004C118.661 11.5267 118.839 11.9513 119.175 12.278C119.52 12.6047 119.945 12.768 120.449 12.768C120.981 12.768 121.401 12.6187 121.709 12.32C122.017 12.0213 122.171 11.6573 122.171 11.228C122.171 10.7427 122.007 10.374 121.681 10.122C121.363 9.86067 120.99 9.73 120.561 9.73C120.197 9.73 119.912 9.78133 119.707 9.884ZM126.536 8.33L124.912 8.218C124.884 7.966 124.87 7.79333 124.87 7.7C124.87 6.87867 125.16 6.17867 125.738 5.6C126.326 5.012 127.115 4.718 128.104 4.718C129.075 4.718 129.85 4.99333 130.428 5.544C131.007 6.09467 131.296 6.77133 131.296 7.574C131.296 8.73133 130.713 9.66933 129.546 10.388L127.782 11.48C127.269 11.788 126.961 12.1333 126.858 12.516H131.352V14H124.786C124.805 13.188 124.978 12.4787 125.304 11.872C125.631 11.2653 126.177 10.724 126.942 10.248L128.44 9.31C129.215 8.82467 129.602 8.25533 129.602 7.602C129.602 7.20067 129.467 6.86467 129.196 6.594C128.935 6.32333 128.562 6.188 128.076 6.188C127.563 6.188 127.171 6.34667 126.9 6.664C126.63 6.972 126.494 7.37333 126.494 7.868L126.536 8.33ZM136.422 10.626H132.474V9.184H136.422V10.626ZM141.021 14H139.369V7.784H137.171V6.636C137.806 6.62667 138.338 6.46333 138.767 6.146C139.197 5.81933 139.463 5.41333 139.565 4.928H141.021V14ZM144.392 8.33L142.768 8.218C142.74 7.966 142.726 7.79333 142.726 7.7C142.726 6.87867 143.015 6.17867 143.594 5.6C144.182 5.012 144.97 4.718 145.96 4.718C146.93 4.718 147.705 4.99333 148.284 5.544C148.862 6.09467 149.152 6.77133 149.152 7.574C149.152 8.73133 148.568 9.66933 147.402 10.388L145.638 11.48C145.124 11.788 144.816 12.1333 144.714 12.516H149.208V14H142.642C142.66 13.188 142.833 12.4787 143.16 11.872C143.486 11.2653 144.032 10.724 144.798 10.248L146.296 9.31C147.07 8.82467 147.458 8.25533 147.458 7.602C147.458 7.20067 147.322 6.86467 147.052 6.594C146.79 6.32333 146.417 6.188 145.932 6.188C145.418 6.188 145.026 6.34667 144.756 6.664C144.485 6.972 144.35 7.37333 144.35 7.868L144.392 8.33ZM152.793 9.884L152.023 8.638L154.529 6.398H150.399V4.928H156.699V6.328L154.235 8.484C154.963 8.50267 155.597 8.75933 156.139 9.254C156.68 9.74867 156.951 10.4113 156.951 11.242C156.951 12.0633 156.643 12.7633 156.027 13.342C155.411 13.9207 154.585 14.21 153.549 14.21C152.541 14.21 151.724 13.9347 151.099 13.384C150.483 12.824 150.147 12.1427 150.091 11.34L151.729 11.004C151.747 11.5267 151.925 11.9513 152.261 12.278C152.606 12.6047 153.031 12.768 153.535 12.768C154.067 12.768 154.487 12.6187 154.795 12.32C155.103 12.0213 155.257 11.6573 155.257 11.228C155.257 10.7427 155.093 10.374 154.767 10.122C154.449 9.86067 154.076 9.73 153.647 9.73C153.283 9.73 152.998 9.78133 152.793 9.884ZM160.504 9.884L159.734 8.638L162.24 6.398H158.11V4.928H164.41V6.328L161.946 8.484C162.674 8.50267 163.308 8.75933 163.85 9.254C164.391 9.74867 164.662 10.4113 164.662 11.242C164.662 12.0633 164.354 12.7633 163.738 13.342C163.122 13.9207 162.296 14.21 161.26 14.21C160.252 14.21 159.435 13.9347 158.81 13.384C158.194 12.824 157.858 12.1427 157.802 11.34L159.44 11.004C159.458 11.5267 159.636 11.9513 159.972 12.278C160.317 12.6047 160.742 12.768 161.246 12.768C161.778 12.768 162.198 12.6187 162.506 12.32C162.814 12.0213 162.968 11.6573 162.968 11.228C162.968 10.7427 162.804 10.374 162.478 10.122C162.16 9.86067 161.787 9.73 161.358 9.73C160.994 9.73 160.709 9.78133 160.504 9.884Z" fill="white"/>
<path d="M9.03682 7.4847C9.64354 7.60307 10.2011 7.8998 10.6382 8.33691C11.0754 8.77401 11.3721 9.33161 11.4905 9.93833L9.03682 7.4847ZM9.03682 5C10.2974 5.14004 11.4728 5.70452 12.3702 6.60077C13.2676 7.49702 13.8335 8.67176 13.9752 9.93212L9.03682 5ZM13.354 14.8891V16.7526C13.3547 16.9256 13.3192 17.0968 13.2499 17.2554C13.1806 17.4139 13.079 17.5562 12.9515 17.6731C12.824 17.7901 12.6735 17.8791 12.5096 17.9345C12.3458 17.9899 12.1721 18.0105 11.9998 17.995C10.0884 17.7873 8.25228 17.1341 6.63909 16.088C5.13823 15.1342 3.86576 13.8618 2.91205 12.3609C1.86225 10.7404 1.20894 8.89538 1.00504 6.97533C0.989519 6.80356 1.00993 6.63043 1.06499 6.46698C1.12004 6.30353 1.20852 6.15333 1.3248 6.02594C1.44108 5.89856 1.58261 5.79679 1.74038 5.7271C1.89815 5.65741 2.0687 5.62134 2.24118 5.62117H4.1047C4.40616 5.61821 4.69841 5.72496 4.92699 5.92153C5.15556 6.1181 5.30486 6.39109 5.34705 6.68959C5.4257 7.28596 5.57157 7.87152 5.78187 8.43509C5.86544 8.65742 5.88353 8.89906 5.83399 9.13135C5.78445 9.36365 5.66935 9.57688 5.50234 9.74577L4.71345 10.5347C5.59773 12.0898 6.88536 13.3774 8.44049 14.2617L9.22938 13.4728C9.39827 13.3058 9.6115 13.1907 9.8438 13.1412C10.0761 13.0916 10.3177 13.1097 10.5401 13.1933C11.1036 13.4036 11.6892 13.5495 12.2856 13.6281C12.5873 13.6707 12.8629 13.8227 13.0599 14.0552C13.2569 14.2877 13.3615 14.5844 13.354 14.8891Z" stroke="white" stroke-linecap="round" stroke-linejoin="round"/>
</svg>
